<svg version="1.1" viewBox="0.0 0.0 672.0 288.0" fill="none" stroke="none" stroke-linecap="square" stroke-miterlimit="10" xmlns:xlink="http://www.w3.org/1999/xlink" xmlns="http://www.w3.org/2000/svg"><clipPath id="p.0"><path d="m0 0l672.0 0l0 288.0l-672.0 0l0 -288.0z" clip-rule="nonzero"/></clipPath><g clip-path="url(#p.0)"><path fill="#000000" fill-opacity="0.0" d="m0 0l672.0 0l0 288.0l-672.0 0z" fill-rule="evenodd"/><path fill="#000000" fill-opacity="0.0" d="m0 45.496063l672.0 0l0 197.00787l-672.0 0z" fill-rule="evenodd"/><path fill="#28a745" d="m27.6875 188.45607q-3.140625 0 -5.28125 -2.140625q-2.140625 -2.140625 -2.140625 -5.28125l0 -96.578125q0 -3.28125 2.140625 -5.34375q2.140625 -2.078125 5.28125 -2.078125l25.8125 0q12.265625 0 22.328125 4.078125q10.0625 4.0625 17.46875 11.5625q7.421875 7.484375 11.421875 17.609375q4.0 10.125 4.0 22.390625q0 12.265625 -4.0 22.46875q-4.0 10.203125 -11.421875 17.703125q-7.40625 7.484375 -17.46875 11.546875q-10.0625 4.0625 -22.328125 4.0625l-25.8125 0zm7.421875 -13.125l18.390625 0q11.984375 0 21.1875 -5.484375q9.203125 -5.5 14.484375 -15.125q5.28125 -9.640625 5.28125 -22.046875q0 -12.546875 -5.28125 -22.109375q-5.28125 -9.5625 -14.484375 -14.984375q-9.203125 -5.421875 -21.1875 -5.421875l-18.390625 0l0 85.171875z" fill-rule="nonzero"/><path fill="#28a745" d="m164.91866 189.17482q-10.984375 0 -19.6875 -5.203125q-8.703125 -5.21875 -13.765625 -14.203125q-5.0625 -8.984375 -5.0625 -20.25q0 -11.421875 5.203125 -20.40625q5.203125 -8.984375 14.1875 -14.1875q9.0 -5.21875 20.265625 -5.21875q11.265625 0 20.1875 5.21875q8.921875 5.203125 14.125 14.1875q5.203125 8.984375 5.34375 20.40625l-4.421875 3.421875q0 10.265625 -4.78125 18.46875q-4.78125 8.203125 -12.984375 12.984375q-8.1875 4.78125 -18.609375 4.78125zm1.140625 -9.984375q8.28125 0 14.765625 -3.84375q6.484375 -3.859375 10.265625 -10.640625q3.78125 -6.78125 3.78125 -15.1875q0 -8.5625 -3.78125 -15.265625q-3.78125 -6.71875 -10.265625 -10.640625q-6.484375 -3.921875 -14.765625 -3.921875q-8.125 0 -14.6875 3.921875q-6.5625 3.921875 -10.421875 10.640625q-3.84375 6.703125 -3.84375 15.265625q0 8.40625 3.84375 15.1875q3.859375 6.78125 10.421875 10.640625q6.5625 3.84375 14.6875 3.84375zm34.09375 9.265625q-2.421875 0 -4.0 -1.5q-1.5625 -1.5 -1.5625 -3.921875l0 -24.390625l2.71875 -11.265625l8.40625 2.140625l0 33.515625q0 2.421875 -1.578125 3.921875q-1.5625 1.5 -3.984375 1.5zm57.50023 0q-7.5625153 0 -13.48439 -3.5625q-5.921875 -3.578125 -9.34375 -9.78125q-3.421875 -6.203125 -3.421875 -14.1875l0 -69.765625q0 -2.421875 1.484375 -3.984375q1.5 -1.578125 3.9375 -1.578125q2.421875 0 3.984375 1.578125q1.578125 1.5625 1.578125 3.984375l0 69.765625q0 7.28125 4.265625 11.921875q4.28125 4.625 11.000015 4.625l3.84375 0q2.28125 0 3.703125 1.578125q1.4375 1.5625 1.4375 3.984375q0 2.421875 -1.71875 3.921875q-1.703125 1.5 -4.28125 1.5l-2.984375 0zm-35.531265 -65.625q-2.140625 0 -3.5625 -1.34375q-1.421875 -1.359375 -1.421875 -3.359375q0 -2.140625 1.421875 -3.5q1.421875 -1.359375 3.5625 -1.359375l36.375015 0q2.140625 0 3.5625 1.359375q1.4375 1.359375 1.4375 3.5q0 2.0 -1.4375 3.359375q-1.421875 1.34375 -3.5625 1.34375l-36.375015 0zm96.722855 66.34375q-10.984375 0 -19.6875 -5.203125q-8.703125 -5.21875 -13.765625 -14.203125q-5.0625 -8.984375 -5.0625 -20.25q0 -11.421875 5.203125 -20.40625q5.203125 -8.984375 14.1875 -14.1875q9.0 -5.21875 20.265625 -5.21875q11.265625 0 20.1875 5.21875q8.921875 5.203125 14.125 14.1875q5.203125 8.984375 5.34375 20.40625l-4.421875 3.421875q0 10.265625 -4.78125 18.46875q-4.78125 8.203125 -12.984375 12.984375q-8.1875 4.78125 -18.609375 4.78125zm1.140625 -9.984375q8.28125 0 14.765625 -3.84375q6.484375 -3.859375 10.265625 -10.640625q3.78125 -6.78125 3.78125 -15.1875q0 -8.5625 -3.78125 -15.265625q-3.78125 -6.71875 -10.265625 -10.640625q-6.484375 -3.921875 -14.765625 -3.921875q-8.125 0 -14.6875 3.921875q-6.5625 3.921875 -10.421875 10.640625q-3.84375 6.703125 -3.84375 15.265625q0 8.40625 3.84375 15.1875q3.859375 6.78125 10.421875 10.640625q6.5625 3.84375 14.6875 3.84375zm34.09375 9.265625q-2.421875 0 -4.0 -1.5q-1.5625 -1.5 -1.5625 -3.921875l0 -24.390625l2.71875 -11.265625l8.40625 2.140625l0 33.515625q0 2.421875 -1.578125 3.921875q-1.5625 1.5 -3.984375 1.5z" fill-rule="nonzero"/><path fill="#28a745" d="m432.40753 189.87794q-11.5625 0 -21.625 -4.34375q-10.046875 -4.359375 -17.546875 -12.125q-7.484375 -7.78125 -11.703125 -18.1875q-4.203125 -10.421875 -4.203125 -22.546875q0 -11.984375 4.203125 -22.328125q4.21875 -10.34375 11.703125 -18.109375q7.5 -7.78125 17.484375 -12.203125q9.984375 -4.421875 21.6875 -4.421875q10.984375 0 18.890625 2.859375q7.921875 2.84375 15.90625 9.40625q1.140625 0.859375 1.78125 1.796875q0.640625 0.921875 0.859375 1.859375q0.21875 0.921875 0.21875 2.203125q0 2.703125 -1.9375 4.484375q-1.921875 1.78125 -4.640625 2.0q-2.703125 0.21875 -5.265625 -1.78125q-5.28125 -4.5625 -10.921875 -6.984375q-5.625 -2.4375 -14.890625 -2.4375q-8.421875 0 -15.84375 3.4375q-7.421875 3.421875 -13.0625 9.421875q-5.625 5.984375 -8.765625 13.90625q-3.140625 7.90625 -3.140625 16.890625q0 9.125 3.140625 17.046875q3.140625 7.921875 8.765625 13.921875q5.640625 5.984375 13.0625 9.34375q7.421875 3.34375 15.84375 3.34375q7.265625 0 13.75 -2.5q6.5 -2.5 12.484375 -6.921875q2.578125 -1.84375 5.0625 -1.625q2.5 0.203125 4.203125 1.984375q1.71875 1.78125 1.71875 4.921875q0 1.421875 -0.578125 2.78125q-0.5625 1.359375 -1.703125 2.5q-7.703125 6.140625 -16.484375 9.28125q-8.765625 3.125 -18.453125 3.125z" fill-rule="nonzero"/><path fill="#28a745" d="m499.73587 188.45607q-2.5625 0 -4.0625 -1.5q-1.5 -1.5 -1.5 -4.0625l0 -66.90625q0 -2.5625 1.5 -4.0625q1.5 -1.5 4.0625 -1.5q2.421875 0 3.921875 1.5q1.5 1.5 1.5 4.0625l0 66.90625q0 2.5625 -1.5 4.0625q-1.5 1.5 -3.921875 1.5zm-0.578125 -92.875q-3.140625 0 -5.421875 -2.28125q-2.28125 -2.28125 -2.28125 -5.5625q0 -3.5625 2.359375 -5.625q2.359375 -2.078125 5.484375 -2.078125q3.0 0 5.34375 2.078125q2.359375 2.0625 2.359375 5.625q0 3.28125 -2.28125 5.5625q-2.28125 2.28125 -5.5625 2.28125zm64.49332 92.875q-7.5625 0 -13.484375 -3.5625q-5.921875 -3.578125 -9.34375 -9.78125q-3.421875 -6.203125 -3.421875 -14.1875l0 -69.765625q0 -2.421875 1.484375 -3.984375q1.5 -1.578125 3.9375 -1.578125q2.421875 0 3.984375 1.578125q1.578125 1.5625 1.578125 3.984375l0 69.765625q0 7.28125 4.265625 11.921875q4.28125 4.625 11.0 4.625l3.84375 0q2.28125 0 3.703125 1.578125q1.4375 1.5625 1.4375 3.984375q0 2.421875 -1.71875 3.921875q-1.703125 1.5 -4.28125 1.5l-2.984375 0zm-35.53125 -65.625q-2.140625 0 -3.5625 -1.34375q-1.421875 -1.359375 -1.421875 -3.359375q0 -2.140625 1.421875 -3.5q1.421875 -1.359375 3.5625 -1.359375l36.375 0q2.140625 0 3.5625 1.359375q1.4375 1.359375 1.4375 3.5q0 2.0 -1.4375 3.359375q-1.421875 1.34375 -3.5625 1.34375l-36.375 0zm75.75409 99.578125q-1.140625 0 -2.5625 -0.578125q-4.859375 -2.140625 -2.71875 -6.84375l46.078125 -101.5625q2.140625 -4.578125 6.84375 -2.578125q4.859375 2.0 2.71875 6.703125l-46.21875 101.578125q-1.4375 3.28125 -4.140625 3.28125zm15.828125 -36.375q-2.140625 1.0 -4.0 0.359375q-1.84375 -0.640625 -2.984375 -2.78125l-31.8125 -65.90625q-1.0 -2.140625 -0.296875 -4.0q0.71875 -1.859375 2.859375 -2.859375q2.140625 -1.0 4.0 -0.34375q1.859375 0.640625 2.859375 2.765625l31.234375 65.921875q1.140625 2.125 0.703125 3.984375q-0.421875 1.859375 -2.5625 2.859375z" fill-rule="nonzero"/></g></svg>